<?xml version="1.0" encoding="utf-8"?>
<!-- Generator: Adobe Illustrator 27.5.0, SVG Export Plug-In . SVG Version: 6.00 Build 0)  -->
<svg version="1.1" id="Design" xmlns="http://www.w3.org/2000/svg" xmlns:xlink="http://www.w3.org/1999/xlink" x="0px" y="0px"
	 viewBox="0 0 2000 2000" style="enable-background:new 0 0 2000 2000;" xml:space="preserve">
<rect style="fill:#FFFFFF;" width="2000" height="2000"/>
<g>
	<path style="fill:#E75677;" d="M1726.489,2000c-78.87,0-157.74,0-236.611,0c-5.355-9.789-3.877-20.799-5.247-31.234
		c-4.376-33.332-8.592-66.69-13.002-100.015c-6.041-45.654-8.578-91.424-7.002-137.397c0.592-17.259,5.006-34.041,8.925-50.824
		c5.224-22.375,13.291-43.987,17.868-66.526c3.762-18.525,5.661-37.241,5.965-56.17c0.352-21.945,4.959-43.371,8.931-64.848
		c2.526-13.658,3.619-27.591,7.754-40.925c1.143-3.263,2.603-6.431,3.644-9.75c-1.171,2.126-1.582,4.542-2.705,6.705
		c-6.062,17.971-6.817,37.004-11.252,55.281c-6.55,26.994-7.15,54.655-9.541,82.121c-1.718,19.735-6.948,38.705-12.613,57.6
		c-7.543,25.161-15.464,50.403-17.693,76.625c-2.029,23.871-3.447,47.795-1.847,71.975c4.372,66.094,15.115,131.413,22.318,197.152
		c0.381,3.479,1.578,7.063-1.077,10.231c-271.664,0-543.328,0-814.992,0c-4.366-9.17-2.176-18.796-1.626-28.197
		c1.421-24.284,3.496-48.549,6.245-72.698c1.988-17.472,1.055-34.955,2.476-52.427c1.635-20.111-0.818-40.421-1.977-60.599
		c-1.174-20.451-3.669-40.84-4.038-61.346c-0.748-41.571-3.128-83.011-7.706-124.362c-4.122-37.231-6.769-74.626-13.386-111.56
		c-0.819-4.57-0.664-9.337,0.371-13.9c1.94-8.55,0.341-16.43-4.558-23.474c-3.308-4.758-2.92-9.046-0.244-13.734
		c7.733-13.551,14.85-27.44,22.341-41.124c5.141-9.392,12.883-16.565,21.891-21.799c26.244-15.247,48.357-35.128,65.965-59.577
		c16.177-22.462,37.711-39.535,56.442-59.401c3.949-4.188,7.895-8.338,11.305-12.997c4.755-6.497,7.072-13.562,5.445-21.609
		c-1.442-7.13-0.753-14.215,0.615-21.209c1.684-8.619,0.343-16.916-2.021-25.127c-2.329-8.088-7.182-13.425-16.191-13.856
		c-4.448-0.213-8.121-1.515-8.709-6.788c-0.573-5.141,3.24-6.51,6.854-7.811c17.018-6.126,33.321-13.992,50.178-20.499
		c8.796-3.395,9.681-2.872,14.723,4.703c31.355,47.102,75.105,77.146,128.804,93.539c34.785,10.619,70.456,12.598,106.474,11.133
		c8.478-0.345,16.938-1.66,25.188-3.54c37.015-8.431,73.101-19.661,105.132-40.71c25.814-16.963,47.116-38.32,58.916-67.676
		c2.199-5.471,5.179-8.14,11.237-5.118c30.444,15.186,63.607,23.714,94.26,38.402c55.598,26.643,110.097,55.188,160.79,90.588
		c32.749,22.869,55.154,53.314,69.687,90.228c13.504,34.301,22.623,69.755,29.369,105.874
		c10.405,55.707,19.632,111.622,27.339,167.762c8.261,60.175,17.547,120.229,23.7,180.671c3.819,37.52,6.54,75.141,8.85,112.804
		c1.824,29.732,4.052,59.438,5.243,89.209C1727.783,1995.991,1728.117,1998.159,1726.489,2000z"/>
	<path style="fill:#E75677;" d="M540.149,2000c-84.347,0-168.695,0-253.042,0c-3.13-1.548-3.611-4.577-4.241-7.539
		c-7.162-33.666-9.931-67.548-6.596-101.962c1.343-13.858,2.078-27.79,3.533-41.663c3.321-31.662,15.753-59.574,34.263-85.071
		c3.378-4.653,6.869-9.224,10.335-13.812c12.499-16.546,21.177-34.572,26.754-54.866c12.797-46.561,29.357-91.788,56.216-132.519
		c11.998-18.194,25.366-34.968,44.305-46.623c9.679-5.957,15.5-15.246,19.794-25.56c7.904-18.986,13.852-38.65,20.158-58.189
		c0.588-1.822,0.928-3.73,1.683-5.494c2.73-6.381,5.646-6.872,9.849-1.388c4.164,5.434,8.188,10.97,12.919,15.937
		c20.511,21.538,46.717,32.957,74.479,41.321c7.339,2.211,15.254,1.413,22.861,0.349c7.555-1.057,12.888-5.692,16.876-11.958
		c2.061-3.239,3.492-6.819,5.242-10.227c1.425-2.774,2.159-7.049,6.425-6.136c3.653,0.782,4.403,4.679,4.914,7.895
		c1.176,7.394,0.886,14.596-2.323,21.682c-8.448,18.658-17.965,36.797-22.17,57.261c-4.26,20.733-7.64,41.368-6.149,62.596
		c2.48,35.302-4.421,69.191-15.587,102.427c-3.401,10.122-6.197,20.488-10.226,30.352c-13.674,33.475-18.565,68.803-19.777,104.343
		c-1.191,34.936-13.154,65.591-29.895,95.169c-0.511,1.13-1.213,2.169-1.803,3.27c0.845-0.217,1.17-0.984,1.677-1.617
		c11.492-18.755,21.816-38.013,27.066-59.526c3.589-14.709,3.166-29.893,4.493-44.851c3.01-33.927,8.316-67.17,20.239-99.374
		c11.21-30.281,20.831-61.151,25.026-93.415c1.458-11.21,1.352-22.445,0.713-33.605c-2.119-37.013,4.208-72.419,19.078-106.306
		c1.784-4.065,2.775-10.779,7.9-10.311c6.054,0.552,3.821,7.448,4.467,11.619c3.937,25.417,5.198,51.12,7.804,76.682
		c2.939,28.827,5.539,57.686,7.857,86.571c0.571,7.115,0.316,14.225,0.38,21.337c0.084,9.3-0.087,18.576,1.321,27.848
		c1.079,7.109,0.519,14.321-2.897,20.853c-29.076,55.587-52.554,113.779-79.45,170.372c-13.974,29.403-29.542,58.049-41.038,88.594
		C542.798,1996.554,541.692,1998.403,540.149,2000z"/>
	<path style="fill:#010101;" d="M538.445,1937.443c5.639-11.831,11.006-23.802,16.988-35.458
		c6.89-13.426,9.967-27.698,10.977-42.579c1.704-25.117,4.553-50.12,7.939-75.055c1.848-13.613,6.581-26.51,10.876-39.489
		c7.557-22.839,15.816-45.456,21.944-68.747c6.251-23.759,8.365-47.873,6.579-72.408c-1.503-20.638,1.835-40.851,5.948-61.027
		c4.209-20.645,13.118-39.345,22.295-58.016c4.884-9.937,5.239-19.889-0.235-29.82c-2.925,0.803-2.73,3.341-3.517,5.198
		c-1.923,4.537-3.789,9.097-6.582,13.195c-5.075,7.446-12.012,11.664-21.055,12.673c-11.145,1.244-21.843-0.411-32.205-4.419
		c-16.376-6.333-31.997-14.26-46.867-23.545c-12.787-7.984-21.712-19.881-30.432-31.866c-0.948-1.303-1.333-3.028-3.066-3.977
		c-2.773,1.837-2.805,5.092-3.566,7.79c-5.348,18.96-11.731,37.561-18.614,56.013c-5.418,14.526-13.631,26.543-27.068,34.985
		c-12.896,8.103-22.648,19.477-31.762,31.683c-24.079,32.247-38.95,68.894-52.526,106.27c-6.172,16.993-10.83,34.426-15.651,51.808
		c-1.929,6.952-4.752,13.358-8.465,19.462c-6.268,10.304-13.387,20.005-20.655,29.615c-16.688,22.067-29.578,45.984-35.193,73.369
		c-2.754,13.432-3.881,27.077-4.951,40.707c-1.606,20.461-3.518,40.942-2.365,61.491c1.227,21.863,4.426,43.468,9.895,64.704
		c-2.739,0-5.477,0-8.216,0c-3.185-15.514-6.317-31.027-8.375-46.755c-2.284-17.462-2.335-34.965-1.241-52.452
		c1.178-18.834,2.788-37.646,5.239-56.376c4.048-30.931,17.207-57.934,35.38-82.812c7.261-9.94,14.537-19.868,21.78-29.82
		c7.365-10.119,11.827-21.171,13.583-33.792c2.994-21.516,11.428-41.573,19.053-61.749c11.932-31.571,26.691-61.636,47.072-88.843
		c9.818-13.106,20.626-24.927,34.596-33.405c11.353-6.891,18.701-16.612,23.172-28.781c7.439-20.249,15.425-40.317,20.435-61.383
		c0.818-3.439,2.207-6.726,4.17-9.757c2.229-3.44,4.079-7.131,6.387-10.514c26.493-38.836,41.052-82.427,51.368-127.785
		c8.552-37.604,15.463-75.508,20.906-113.661c4.134-28.981,6.746-58.114,7.459-87.445c0.751-30.9,2.401-61.791,9.251-92.117
		c1.889-8.364,3.976-16.511,12.488-21.075c3.608-1.935,2.542-5.825,2.198-8.948c-0.901-8.203-1.186-16.347,0.155-24.538
		c1.242-7.583,2.935-14.582,12.01-16.531c8.6-1.847,17.176,1.199,22.381,8.497c4.179,5.861,6.627,12.536,8.611,19.391
		c1.67,5.769,3.293,11.551,4.936,17.328c0.638,2.333,2.339,4.4,2.1,6.784c0.93-0.73-0.284-2.587,1.004-3.563
		c0.596-14.496,1.171-28.992,1.8-43.487c0.25-5.774,1.307-11.432,3.363-16.827c3.647-9.566,11.597-14.656,21.733-14.165
		c9.226,0.447,16.042,5.926,18.905,15.532c1.328,4.455,2.167,9.043,2.171,13.744c0.015,21.353,0.342,42.71-0.004,64.057
		c-0.285,17.546-3.293,34.834-6.49,52.061c-4.041,21.769-8.075,43.538-12.113,65.308c-0.412,1.827,0.121,2.645,2.076,1.942
		c8.192-6.836,16.465-13.476,25.858-18.747c14.72-8.26,28.088-6.825,40.953,3.837c9.974,8.266,17.812,18.541,26.773,27.754
		c4.956,5.095,9.572,10.536,14.133,15.995c3.869,4.631,6.151,10.198,7.924,16.077c8.843-2.156,16.478-5.927,24.255-9.174
		c25.471-10.639,50.725-21.8,76.193-32.445c13.56-5.668,23.586-15.73,33.611-25.807c4.295-4.317,4.601-10.365,4.804-16.15
		c0.482-13.709-1.72-27.344-1.441-41.02c0.23-11.281-2.588-21.058-8.985-30.521c-17.214-25.467-27.034-54.138-34.433-83.73
		c-2.197-8.787-3.228-17.759-3.985-26.746c-0.308-3.653-0.754-5.787-5.269-6.395c-8.588-1.158-13.868-7.076-17.519-14.583
		c-8.025-16.503-14.541-33.632-19.936-51.123c-4.181-13.555-9.941-26.633-12.317-40.763c-1.007-5.99-1.416-11.96-1.246-17.974
		c0.482-17.02,7.508-22.579,23.957-19.151c0.29-0.423,0.901-0.922,0.823-1.26c-3.513-15.118-5.71-30.565-12.753-44.738
		c-7.2-14.49-12.551-29.667-15.222-45.731c-3.119-18.752-1.166-37.19,3.995-55.217c6.616-23.114,13.771-46.082,21.157-68.964
		c4.668-14.462,11.67-27.839,23.106-38.229c28.817-26.182,61.646-45.169,99.698-54.495c8.269-2.027,16.73-2.678,25.237-2.772
		c26.281-0.29,52.574-1.156,78.836,0.295c31.778,1.756,61.96,10.018,90.704,23.542c8.213,3.864,15.412,9.404,22.395,15.141
		c8.506,6.988,17.64,12.842,27.729,17.341c9.311,4.152,17.685,9.76,24.45,17.607c6.542,7.587,9.978,16.239,9.802,26.264
		c-0.077,4.377-0.19,8.761-0.515,13.124c-0.439,5.904,1.224,10.729,6.23,14.258c2.229,1.571,4.298,3.397,6.304,5.254
		c9.677,8.962,15.391,19.953,15.628,33.226c0.698,39.144-3.315,77.559-18.79,114.055c-1.276,3.01-2.797,5.915-4.205,8.87
		c-0.058,0.766-0.893,1.669,0.387,2.2c14.188-3.593,22.398,6.952,24.638,16.815c0.545,2.397,1.189,4.816,1.334,7.252
		c2.218,37.43-2.659,73.658-18.609,107.958c-2.897,6.23-6.341,12.145-11.496,16.832c-3.482,3.166-7.213,6.21-12.317,5.456
		c-3.783-0.559-4.507,1.194-5.029,4.414c-3.149,19.42-6.24,38.855-11.041,57.966c-4.083,16.253-9.676,31.89-18.346,46.314
		c-1.574,2.619-2.574,5.171-2.253,8.462c1.409,14.446,1.675,28.958,1.796,43.464c0.086,10.278,2.754,19.921,6.317,29.48
		c4.267,11.448,12.268,19.551,22.778,24.787c13.727,6.839,27.052,14.356,40.088,22.345c20.845,12.775,42.733,23.128,65.824,31.147
		c51.074,17.737,98.96,42.243,145.811,68.967c24.48,13.964,48.461,28.636,71.703,44.619c33.595,23.103,56.767,53.93,71.793,91.547
		c13.654,34.182,22.607,69.606,29.5,105.626c12.233,63.924,21.99,128.252,30.939,192.702c6.205,44.687,12.422,89.38,17.766,134.174
		c3.66,30.682,6.227,61.511,8.554,92.33c2.452,32.464,4.203,64.985,5.924,97.499c0.752,14.203,0.667,28.45,0.962,42.677
		c-1.643,0-3.286,0-4.929,0c-1.038-4.283-1.235-8.654-1.389-13.033c-1.501-42.676-5.152-85.215-8.037-127.804
		c-2.164-31.949-5.21-63.816-8.935-95.605c-3.47-29.608-7.66-59.134-11.697-88.673c-4.111-30.078-8.125-60.174-12.706-90.182
		c-9.409-61.639-18.343-123.381-32.859-184.1c-7.784-32.561-18.464-64.115-34.805-93.55c-10.52-18.95-24.462-34.908-41.331-48.388
		c-25.112-20.066-52.615-36.436-80.581-52.099c-39.41-22.071-79.031-43.71-121.274-60.052c-8.418-3.257-16.864-6.449-25.34-9.551
		c-15.38-5.628-30.827-11.081-45.506-19.414c-5.007,13.016-10.722,24.774-18.842,35.216c-14.977,19.263-32.891,35.146-54.35,46.858
		c-34.449,18.801-71.156,31.361-109.988,36.484c-34.15,4.505-68.165,1.898-101.943-5.512
		c-44.282-9.714-82.091-31.096-115.343-61.271c-13.072-11.863-23.824-25.631-32.764-40.833c-0.677-1.151-1.43-2.257-2.311-3.641
		c-16.43,6.774-32.566,13.455-48.729,20.069c-4.047,1.656-8.147,3.204-12.292,4.595c-2.607,0.875-3.321,2.298-2.638,4.934
		c0.631,2.438,0.739,4.47,4.336,4.65c14.497,0.728,19.151,4.869,22.055,18.883c1.622,7.826,2.168,15.633,0.693,23.63
		c-1.081,5.863-2.162,11.841-0.575,17.893c2.498,9.528-0.414,17.832-6.263,25.303c-7.105,9.074-15.287,17.174-23.451,25.266
		c-5.831,5.779-11.884,11.342-17.989,16.835c-5.927,5.333-11.39,11.063-16.067,17.518c-7.56,10.433-16.039,20.111-24.357,29.926
		c-10.342,12.203-22.179,22.688-35.519,31.495c-5.939,3.921-11.924,7.774-17.803,11.781c-9.422,6.422-17.007,14.416-22.301,24.708
		c-6.63,12.892-13.779,25.518-20.8,38.206c-1.557,2.814-2.081,4.791,0.295,7.912c5.868,7.707,8.155,16.602,5.773,26.312
		c-1.401,5.71-1.086,11.415,0.056,17.103c4.583,22.833,6.765,45.982,9.122,69.107c2.552,25.038,5.127,50.074,7.563,75.124
		c0.874,8.986,1.599,17.998,1.993,27.016c0.812,18.595,1.542,37.198,1.962,55.805c0.513,22.729,2.678,45.335,4.266,67.991
		c1.838,26.219,2.022,52.493,1.213,78.793c-0.826,26.844-3.885,53.487-6.132,80.204c-1.147,13.644-2.067,27.286-2.181,40.981
		c-0.037,4.37-0.263,8.739-0.402,13.109c-2.191,0-4.382,0-6.573,0c-6.316-12.121-4.097-25.019-3.403-37.766
		c1.665-30.569,5.689-60.931,7.787-91.485c2.712-39.494,0.36-78.657-3.237-117.878c-0.075-0.819,0.029-1.639,0.097-2.428
		c0.388-1.492,0.404-3.104,0.77-4.405c-0.819,0.91-0.329,2.574-1.13,3.768c-31.44,64.156-56.883,131.065-89.735,194.576
		c-7.153,13.829-13.461,28.139-19.428,42.562c-1.873,4.528-3.374,9.285-6.741,13.057c-2.191,0-4.382,0-6.573,0
		c-0.901-3.535,1.254-6.364,2.388-9.332c7.138-18.675,15.373-36.888,24.434-54.691c17.259-33.914,33.293-68.379,48.243-103.37
		c13.875-32.475,29.964-63.914,45.622-95.547c2.757-5.57,3.91-11.115,3.781-17.329c-0.934-44.91-3.957-89.662-8.93-134.309
		c-2.756-24.741-4.716-49.571-7.145-74.35c-0.653-6.66-1.709-13.281-3.377-20.008c-6.604,12.14-12.331,24.373-15.974,37.541
		c-5.648,20.416-8.371,41.267-9.519,62.344c-0.281,5.162,0.231,10.393,0.68,15.566c2.582,29.748-3.51,58.295-12.104,86.441
		c-5.191,17-10.584,33.957-16.55,50.697c-8.609,24.154-13.475,48.976-15.437,74.486c-1.301,16.908-3.08,33.78-4.696,50.664
		c-1.078,11.269-3.967,22.046-8.937,32.251c-3.713,7.625-7.245,15.341-11.046,22.922c-3.058,6.098-6.257,12.146-11.187,17.034
		C537.276,1941.171,537.466,1939.523,538.445,1937.443z"/>
	<path style="fill:#FFFFFF;" d="M664.892,1747.015c3.369,35.147,5.972,70.317,4.694,105.682c-1.058,29.278-4.03,58.391-6.895,87.518
		c-1.958,19.908-3.26,39.815-0.95,59.785c-38.34,0-76.679,0-115.019,0c0.021-4.537,2.49-8.282,4.161-12.233
		c8.723-20.624,18.15-40.939,28.396-60.844c20.137-39.121,36.154-80.102,54.61-119.978c9.048-19.549,18.467-38.926,27.718-58.38
		C662.596,1747.823,663.076,1746.003,664.892,1747.015z"/>
	<path style="fill:#020101;" d="M1483.305,2000c-4.111-32.28-8.532-64.525-12.254-96.85c-4.505-39.119-10.087-78.128-11.91-117.534
		c-2.253-48.696,4.995-95.993,20.048-142.212c8.608-26.43,13.813-53.431,14.378-81.295c0.479-23.643,5.53-46.652,10.107-69.722
		c2.127-10.721,3.86-21.52,5.977-32.243c0.951-4.816,2.201-9.604,4.807-13.882c3.286-0.171,2.439,1.844,1.942,3.673
		c-5.597,25.934-8.953,52.264-13.849,78.323c-1.771,9.426-2.425,19.012-2.584,28.584c-0.503,30.298-5.174,59.845-14.263,88.806
		c-6.797,21.657-12.406,43.675-16.276,66.082c-0.93,5.386-1.976,10.82-2.153,16.259c-1.069,32.844-1.648,65.687,2.217,98.429
		c3.56,30.157,6.909,60.34,10.582,90.483c2.25,18.462,5.08,36.854,7.365,55.313c1.142,9.221,1.645,18.522,2.437,27.787
		C1487.687,2000,1485.496,2000,1483.305,2000z"/>
	<path style="fill:#C1C1C0;" d="M655.012,959.898c0.505,1.314,0.504,2.602-0.378,4.274c-1.861-2.332-3.006-4.62-2.726-7.495
		C652.943,957.75,653.978,958.824,655.012,959.898z"/>
	<path style="fill:#858385;" d="M686.453,1098.062c-0.364,1.501-1.826,2.782-2.754,2.066c-1.398-1.079-0.969-2.887,0.677-4.008
		C685.069,1096.767,685.761,1097.415,686.453,1098.062z"/>
	<path style="fill:#9F9F9F;" d="M1264.781,707.166c-0.378,0.958-1.089,1.232-1.554,0.268c-0.512-1.061-0.137-2.076,1.167-2.468
		C1264.523,705.699,1264.652,706.432,1264.781,707.166z"/>
	<path style="fill:#331217;" d="M1516.401,1449.935c-0.365-1.374-0.35-2.948-1.942-3.673c0.75-3.89,2.75-6.782,8.156-9.471
		C1520.045,1442.227,1518.223,1446.081,1516.401,1449.935z"/>
	<path style="fill:#1E0A0B;" d="M538.445,1937.443c0.202,1.434,0.431,2.853,1.951,3.566c-0.534,1.264-1.234,2.817-2.712,2.512
		c-1.856-0.383-1.077-2.158-0.78-3.313C537.159,1939.219,537.912,1938.359,538.445,1937.443z"/>
	<path style="fill:#1D0803;" d="M837.804,616.809c-1.56-13.963,1.787-26.956,5.645-39.742c6.776-22.458,14.032-44.771,21.169-67.119
		c5.346-16.74,16.308-29.542,29.438-40.584c12.348-10.384,25.92-19.168,40.168-26.609c17.424-9.101,35.529-17.067,55.226-19.674
		c8.302-1.099,16.677-2.351,25.22-2.136c16.963,0.427,33.945,0.259,50.916,0.094c37.135-0.361,72.37,8.112,106.289,22.673
		c9.643,4.14,17.285,11.387,25.443,17.713c7.819,6.062,15.932,11.385,24.981,15.427c7.722,3.45,15.196,7.509,20.956,13.936
		c6.34,7.074,11.193,14.741,10.106,24.972c-0.489,4.602,0.408,9.364-0.195,13.938c-1.208,9.175,3.396,15.387,10.101,20.126
		c12.721,8.991,17.773,21.186,18.083,36.444c0.312,15.332-0.666,30.594-2.069,45.764c-1.321,14.282-4.491,28.305-9.097,42.125
		c-5.637,16.916-12.816,33.076-20.294,49.154c-2.044,4.394-2.128,9.117-2.687,13.537c-1.23,9.728-1.332,19.727-0.012,29.473
		c1.331,9.828,1.496,19.419-0.067,29.234c-1.707,10.723-2.411,21.601-3.766,32.385c-0.982,7.814-2.187,15.606-3.511,23.37
		c-2.556,14.988-5.289,29.945-7.907,44.923c-3.573,20.442-8.014,40.703-17.059,59.493c-5.672,11.783-12.602,22.962-18.952,34.419
		c-2.647,4.776-5.051,9.701-7.922,14.338c-7.915,12.782-18.794,23.309-27.41,35.586c-1.798,2.563-4.947,4.22-7.58,6.148
		c-14.292,10.465-28.218,21.379-46.026,25.842c-14.85,3.721-29.683,3.696-44.637,1.95c-27.636-3.226-51.066-17.257-74.164-30.96
		c-21.309-12.641-37.797-30.91-50.149-52.715c-5.383-9.503-11.251-18.733-15.833-28.67c-10.31-22.362-18.14-45.521-22.369-69.84
		c-1.868-10.739-2.649-21.548-3.304-32.428c-0.832-13.82-3.189-27.501-6.328-41.034c-3.685-15.883-5.462-32.157-9.743-47.933
		c-2.22-8.18-4.873-16.153-8.265-23.943c-4.443-10.201-7.951-20.863-9.633-31.816c-2.297-14.959-6.573-29.169-13.025-42.762
		c-5.901-12.433-9.114-25.673-11.58-39.062C836.989,627.557,837.804,621.937,837.804,616.809z"/>
	<path style="fill:#E1A78B;" d="M805.619,1166.053c9.542-1.468,12.702,0.171,15.699,8.134c2.949,7.836,3.892,15.989,2.396,24.228
		c-1.521,8.382-2.841,16.612-0.731,25.165c1.646,6.672-1.425,12.471-5.658,17.313c-7.203,8.239-14.278,16.709-22.347,24.048
		c-19.931,18.128-37.431,38.37-54.025,59.482c-12.309,15.66-26.801,28.823-44.158,38.77c-4.502,2.58-8.771,5.59-13.023,8.579
		c-10.457,7.35-18.984,16.373-24.862,27.906c-6.458,12.672-13.038,25.293-20.591,37.37c-1.757,2.809-2.845,5.828-3.336,9.167
		c-0.963,6.547-3.421,12.665-6.261,18.593c-4.421,9.227-11.796,13.924-22.086,14.48c-8.089,0.438-15.833-0.839-23.361-3.564
		c-16.516-5.979-32.29-13.62-47.177-22.868c-13.232-8.22-22.669-20.456-31.907-32.738c-2.42-3.218-2.506-6.157,0.001-9.647
		c30.555-42.545,44.633-91.561,55.546-141.825c11.037-50.839,18.864-102.191,24.443-153.884c2.586-23.963,1.906-48.132,3.547-72.168
		c1.436-21.032,3.357-41.995,8.378-62.542c0.98-4.009,2.295-7.864,5.494-10.797c4.627-4.243,8.057-4.089,11.351,1.292
		c4.487,7.33,6.499,15.587,7.845,24.007c2.843,17.791-0.338,35.488-0.924,53.218c-0.571,17.279,1.167,34.354,2.925,51.435
		c3.163-0.045,2.469-2.179,2.472-3.568c0.057-28.201,1.806-56.349,2.592-84.526c0.347-12.421-1.772-24.535-5.867-36.269
		c-1.915-5.489-4.393-10.649-9.731-13.765c-1.425-0.832-2.594-1.732-2.606-3.762c-0.054-9.571-1.363-19.169,0.146-28.699
		c0.707-4.466,1.018-9.521,6.843-11.029c5.852-1.514,11.92,0.717,15.846,6.084c3.437,4.699,5.428,10.096,7.211,15.573
		c6.832,20.985,9.259,42.682,10.498,64.581c1.128,19.935,2.394,39.862,3.525,59.797c0.669,11.783-0.366,23.53-0.977,35.283
		c-0.085,1.636-0.356,3.291-0.198,4.903c0.155,1.576,0.508,3.462,2.664,3.422c1.684-0.031,2.14-1.724,2.344-2.946
		c0.901-5.39,1.773-10.797,2.319-16.232c1.314-13.093,1.583-26.206,0.846-39.366c-1.379-24.626-1.303-49.231,1.314-73.809
		c1.596-14.989,1.39-30.078,1.515-45.133c0.059-7.14,0.528-14.244,1.765-21.248c1.012-5.729,2.872-11.202,8.729-14.07
		c7.702-3.772,15.584-0.838,18.822,7.264c2.361,5.91,2.99,12.198,3.216,18.511c1.556,43.356-0.34,86.374-10.37,128.866
		c-4.514,19.122-5.999,38.926-12.365,57.685c-0.431,1.269-0.616,2.698-0.565,4.04c0.126,3.344,2.419,4.882,5.592,3.839
		c2.426-0.797,4.069-2.735,5.898-4.357c6.966-6.178,13.946-12.336,21.534-17.757c5.371-3.837,11.167-6.86,17.328-9.248
		c6.643-2.574,12.834-1.775,18.845,1.861c5.673,3.431,10.649,7.67,15.097,12.559c9.211,10.125,18.399,20.271,27.642,30.368
		c4.321,4.72,7.445,10.034,9.329,16.201c2.639,8.642,4.938,17.361,5.887,26.339c1.263,11.944-5.803,15.162-15.08,15.857
		c-1.684,0.126-3.257-0.148-4.613-1.277c-6.503-5.416-12.973-10.487-15.786-19.329c-3.378-10.617-10.03-19.333-19.453-25.738
		c-5.705-3.878-11.584-4.641-17.846-1.791c-9.974,4.539-19.701,9.57-28.689,15.868c-14.589,10.224-21.811,25.016-24.689,42.02
		c-2.366,13.98,7.924,30.393,21.656,35.011c8.532,2.869,17.366,4.684,24.514,10.835c2.756,2.372,6.618,2.289,10.255,1.576
		c6.256-1.226,12.04-3.566,17.384-7.04c14.591-9.486,25.808-21.93,32.939-37.868c1.666-3.723,3.595-6.089,8.143-6.797
		c13.077-2.036,18.292-9.017,17.405-22.115C806,1168.727,805.815,1167.647,805.619,1166.053z"/>
	<path style="fill:#E1A78B;" d="M947.721,1014.13c17.327,20.195,37.693,36.423,62.011,47.492c5.225,2.378,10.633,4.421,15.649,7.177
		c18.582,10.207,38.801,12.912,59.483,12.813c20.255-0.097,38.429-7.085,55.329-18.076c26.93-17.513,45.435-42.2,60.67-69.811
		c1.652-2.994,2.682-6.426,6.806-10.319c0,11.94-0.073,22.204,0.021,32.466c0.095,10.417,1.264,20.646,4.068,30.784
		c4.341,15.694,13.656,27.27,27.646,35.059c3.817,2.126,4.617,4.353,4.122,8.378c-1.197,9.749-4.49,18.478-10.487,26.313
		c-9.142,11.943-20.612,21.133-33.494,28.595c-25.274,14.638-52.444,24.479-80.826,31.036c-4.497,1.039-9.209,1.388-13.841,1.568
		c-35.869,1.403-71.007-1.189-103.902-17.733c-17.561-8.832-36.31-15.258-52.868-26.153c-5.265-3.465-10.515-6.897-14.961-11.431
		c-3.291-3.356-6.059-7.078-8.053-11.313c-4.092-8.689-3.369-12.119,3.643-18.592c0.402-0.371,0.769-0.795,1.214-1.103
		c14.311-9.914,19.018-23.928,17.698-40.702c-0.858-10.905-1.309-21.841-1.942-32.764
		C945.266,1015.977,944.504,1013.964,947.721,1014.13z"/>
	<path style="fill:#E75677;" d="M872.176,1122.21c14.637-6.542,28.958-12.456,42.598-19.42c2.344,1.445,1.706,3.614,2.168,5.321
		c3.095,11.442,10.248,19.859,19.849,26.284c11.156,7.466,22.817,14.081,35.081,19.599c10.729,4.827,21.361,9.874,32.143,14.579
		c22.024,9.611,44.936,15.606,69.089,16.053c12.312,0.228,24.628,0.786,36.94-0.319c16.265-1.46,31.509-6.777,46.724-12.177
		c20.97-7.442,41.097-16.543,59.149-29.849c8.92-6.575,16.404-14.413,23.064-23.199c6.841-9.025,9.895-19.379,11.07-30.321
		c3.172-1.22,4.923,0.995,6.866,2.143c10.84,6.403,21.601,12.941,32.379,19.45c5.759,3.478,5.709,3.477,3.297,9.484
		c-10.22,25.448-27.705,45.091-49.473,61.106c-13.939,10.255-29.142,18.472-45.3,24.701c-24.78,9.552-49.81,18.421-76.243,22.283
		c-37.005,5.407-73.485,3.017-109.938-5.719c-42.859-10.271-78.616-32.456-110.389-61.95c-10.26-9.524-18.421-20.951-26.172-32.597
		C874.051,1126.117,873.318,1124.375,872.176,1122.21z"/>
	<path style="fill:#E1A78B;" d="M1285.266,754.29c-0.211,19.267-3.852,37.992-8.833,56.501
		c-2.995,11.129-7.447,21.662-13.117,31.687c-2.59,4.579-5.875,8.562-10.276,11.505c-1.891,1.265-4.077,1.876-6.189,0.673
		c-2.251-1.281-0.999-3.338-0.768-5.139c2.292-17.866,4.766-35.712,6.792-53.608c1.17-10.331,0.687-20.711-0.344-31.083
		c-1.136-11.424-1.956-22.948,1.077-34.207c1.534-5.695,2.717-11.723,8.345-15.447c6.907-4.57,12.809-3.906,17.945,2.537
		c2.805,3.519,4.103,7.649,4.653,12.063C1285.567,737.928,1285.837,746.107,1285.266,754.29z"/>
	<path style="fill:#E1A78B;" d="M890.323,856.22c0.095,1.331,0.246,2.155,0.195,2.966c-0.147,2.348,2.092,5.321-0.293,6.888
		c-2.444,1.606-5.246-0.381-7.678-1.553c-5.02-2.418-7.454-7.076-9.717-11.773c-7.603-15.784-13.415-32.284-18.719-48.928
		c-4.548-14.273-10.583-28.139-12.447-43.211c-0.776-6.276-1.227-12.56-0.288-18.794c0.982-6.516,4.24-9.888,8.931-10.182
		c5.923-0.37,11.798,3.617,14.096,8.729c10.538,23.443,14.609,48.529,19.159,73.522C886.154,828.12,889.774,842.183,890.323,856.22z
		"/>
	<path style="fill:#E75677;" d="M686.835,1216.801c8.847-8.859,17.273-18.194,28.143-24.709
		c12.414-7.44,25.488-13.633,38.507-19.935c3.874-1.875,5.797-1.246,7.44,2.723c2.365,5.714,7.026,9.65,11.734,13.421
		c2.296,1.839,3.915,3.629,2.241,6.871c-7.635,14.786-17.043,28.001-32.02,36.245c-3.082,1.696-6.412,3.066-9.779,4.087
		c-4.602,1.396-8.966,1.176-13.042-2.24c-5.155-4.319-11.6-5.868-18.082-7.097C695.893,1225.014,690.572,1222.582,686.835,1216.801z
		"/>
	<path style="fill:#FEFEFE;" d="M682.185,1208.919c-2.333-3.681-2.638-7.725-1.883-11.712c3.063-16.167,10.241-29.909,24.395-39.146
		c7.542-4.922,15.631-8.9,23.694-12.911c5.894-2.932,10.87-2.362,15.483,2.579c3.536,3.787,7.535,7.153,10.517,11.438
		c2.797,4.018,2.677,4.634-1.792,6.258c-11.058,4.018-21.426,9.485-31.894,14.771c-12.064,6.092-22.805,13.897-32.164,23.655
		C686.71,1205.759,685.17,1208.184,682.185,1208.919z"/>
	<path style="fill:#9D7A6C;" d="M947.721,1014.13c-1.616,0.711-1.452,2.395-2.015,3.682c-1.699-2.188-1.627-4.549-1.047-7.157
		C946.581,1011.382,947.42,1012.536,947.721,1014.13z"/>
	<path style="fill:#D8D9D9;" d="M664.892,1747.015c-1.095,0.516-2.19,1.033-3.285,1.549c-0.058-2.327,1.033-4.138,2.557-5.828
		C665.719,1744.002,665.229,1745.521,664.892,1747.015z"/>
	<path style="fill:#010101;" d="M1152.267,908.838c-14.953,2.305-29.535-2.737-43.721-9.697c-9.244-4.536-19.439-5.436-29.383-6.272
		c-8.322-0.7-16.784-0.46-25.292,0.846c-6.786,1.042-14.164-0.172-21.033-1.581c-18.514-3.795-35.634-1.633-51.025,9.952
		c-13.542,10.193-27.453,9.707-42.103,2.255c-15.83-8.053-25.249-21.168-31.53-37.188c-5.52-14.081-7.086-29.028-9.768-43.718
		c-1.9-10.407-3.291-20.911-4.719-31.398c-0.88-6.462-1.03-13.043-1.488-19.51c-0.769-10.846-2.802-21.632-2.2-32.622
		c0.366-6.684-0.106-13.432-0.105-20.151c0.003-17.705,3.895-34.596,8.98-51.295c2.219-7.287,4.38-14.644,8.021-21.458
		c4.697-8.79,11.604-14.278,21.621-15.642c10.231-1.393,20.551-2.201,30.747-3.569c13.669-1.834,27.304-0.436,40.886-1.456
		c19.688-1.478,38.797-5.892,56.708-14.375c10.856-5.142,21.697-10.351,32.051-16.556c5.892-3.531,12.82-2.385,19.221-1.095
		c9.645,1.945,18.732,5.791,27.966,9.142c18.203,6.606,36.714,12.339,55.76,15.895c18.789,3.508,28.902,15.446,33.346,32.93
		c4.092,16.1,5.649,32.567,7.027,49.157c1.476,17.767,0.067,35.539,1.603,53.181c1.418,16.286,3.616,32.512,2.926,48.877
		c-0.958,22.709-3.926,45.286-14.059,65.834c-10.27,20.826-27.08,34.795-50.376,39.335
		C1166.266,909.842,1159.778,908.838,1152.267,908.838z"/>
	<path style="fill:#030101;" d="M1032.647,920.381c10.809,1.003,22.165-1.175,33.571-1.347c23.765-0.358,44.78,7.567,62.963,22.911
		c0.417,0.352,0.818,0.731,1.178,1.14c7.958,9.029,7.81,15.049-3.576,20.117c-7.004,3.118-14.313,5.108-22.129,5.013
		c-22.083-0.267-44.105-2.594-66.227-1.747c-7.397,0.283-13.604-3.821-19.765-7.234c-8.824-4.888-17.463-10.105-22.701-19.371
		c-3.963-7.01-3.918-15.047,7.501-17.836C1012.978,919.705,1022.487,921.147,1032.647,920.381z"/>
	<path style="fill:#E1A78B;" d="M894.818,729.108c-0.792-23.835,3.613-46.806,11.81-69.103c1.412-3.839,3.149-7.57,4.907-11.269
		c3.291-6.924,8.854-10.988,16.347-12.368c16.216-2.985,32.601-4.37,49.022-3.066c10.462,0.83,20.897,0.653,31.094-0.862
		c27.836-4.137,54.479-12.164,77.815-28.612c6.348-4.474,12.595-5.759,20.037-3.78c7.943,2.112,15.752,4.577,23.457,7.388
		c19.035,6.943,38.298,13.23,58.226,16.935c17.078,3.175,26.937,13.055,31.369,29.492c5.17,19.176,7.032,38.762,7.466,58.467
		c0.536,24.361,1.42,48.675,3.448,72.97c2.117,25.36-0.146,50.321-9.544,74.252c-8.419,21.435-23.053,36.864-45.783,42.155
		c-17.728,4.127-36.116,4.798-53.084-3.549c-20.376-10.024-41.732-12.477-63.9-10.62c-10.767,0.902-21.35-0.669-31.855-2.315
		c-15.406-2.414-29.333,0.586-42.179,9.229c-1.815,1.221-3.758,2.259-5.534,3.531c-13.795,9.888-27.407,7.533-40.5-1.132
		c-10.531-6.97-17.912-16.718-22.586-28.523c-4.665-11.784-6.884-24.13-9.084-36.53c-5.597-31.55-9.194-63.315-10.933-95.299
		C894.702,734.041,894.818,731.571,894.818,729.108z"/>
	<path style="fill:#E1A78B;" d="M1034.423,925.331c14.345,0.987,29.06-1.901,43.864-0.146c17.397,2.063,32.738,8.661,45.96,19.975
		c8.266,7.073,7.552,9.986-2.589,13.764c-4.646,1.731-9.436,2.884-14.415,2.881c-7.665-0.005-15.342,0.095-22.993-0.283
		c-10.659-0.527-21.259-1.208-31.972-0.321c-18.909,1.567-33.648-7.887-47.233-19.446c-3.229-2.747-6.854-6.871-5.604-11.163
		c1.096-3.762,6.39-3.439,10.008-4.257C1017.549,924.503,1025.813,925.572,1034.423,925.331z"/>
</g>
</svg>
